<svg xmlns="http://www.w3.org/2000/svg" width="47" height="47">
    <path stroke="#FFF" fill="none" d="M23.499 3.499c11.046 0 20 8.955 20 20 0 11.046-8.954 20-20 20-11.045 0-20-8.954-20-20 0-11.045 8.955-20 20-20z"/>
    <path fill-rule="evenodd" fill="#FFF" d="M30.584 25.522a.835.835 0 0 0-1.188 0l-5.055 5.083V14.348c0-.47-.378-.85-.845-.85-.206 0-.845.38-.845.85v16.257l-5.049-5.083a.835.835 0 0 0-1.188 0c.426.331.426.863 0 1.195l6.491 6.527c.795.165.378.248.598.248a.837.837 0 0 0 .597-.248l6.491-6.527a.865.865 0 0 0-.007-1.195z"/>
</svg>
